<svg width="564" height="138" viewBox="0 0 564 138" fill="none" xmlns="http://www.w3.org/2000/svg">
<g clip-path="url(#clip0)">
<g filter="url(#filter0_dddii)">
<path d="M122.825 24.3335C137.406 28.3929 146.696 42.0904 145.172 56.6988C145.172 56.6988 143.469 73.6969 141.904 89.0879C141.586 92.3325 141.273 95.4292 140.973 98.2262L140.971 98.2265C140.101 106.71 139.422 113.179 139.348 113.444C137.423 120.359 130.286 124.45 123.328 122.513C119.819 121.536 117.071 119.464 115.414 116.519L109.268 105.744L109.266 105.744L109.22 105.66L100.409 90.215L59.7933 78.9073L60.8774 78.2939L53.1597 76.0102L34.9562 85.3462C33.5991 86.1145 33.9105 84.3086 34.3005 82.0462C34.7557 79.4061 35.318 76.1444 33.4609 75.6274C29.8724 74.6283 25.4049 77.6581 22.2155 79.8212C19.2747 81.8156 17.4206 83.073 18.3442 79.7557C18.5637 78.9671 42.6815 28.165 42.6815 28.165C48.9857 14.8874 63.957 7.94428 78.538 12.0037L122.825 24.3335Z" fill="black"/>
<path d="M122.825 24.3335C137.406 28.3929 146.696 42.0904 145.172 56.6988C145.172 56.6988 143.469 73.6969 141.904 89.0879C141.586 92.3325 141.273 95.4292 140.973 98.2262L140.971 98.2265C140.101 106.71 139.422 113.179 139.348 113.444C137.423 120.359 130.286 124.45 123.328 122.513C119.819 121.536 117.071 119.464 115.414 116.519L109.268 105.744L109.266 105.744L109.22 105.66L100.409 90.215L59.7933 78.9073L60.8774 78.2939L53.1597 76.0102L34.9562 85.3462C33.5991 86.1145 33.9105 84.3086 34.3005 82.0462C34.7557 79.4061 35.318 76.1444 33.4609 75.6274C29.8724 74.6283 25.4049 77.6581 22.2155 79.8212C19.2747 81.8156 17.4206 83.073 18.3442 79.7557C18.5637 78.9671 42.6815 28.165 42.6815 28.165C48.9857 14.8874 63.957 7.94428 78.538 12.0037L122.825 24.3335Z" fill="url(#paint0_linear)"/>
</g>
<g filter="url(#filter1_dddii)">
<path d="M123.018 23.441L77.3361 10.723C62.7824 6.67121 48.1236 12.5097 39.7401 30.5028C31.3566 48.4959 17.1597 78.6619 17.1597 78.6619C16.9716 79.3374 16.5614 79.9511 16.3753 80.6195C14.4986 87.3605 18.3743 94.2396 24.8665 96.047C28.2272 96.9827 31.5127 96.4415 34.3178 95.0465L71.11 73.8272L106.265 83.6146C122.388 88.1033 139.575 78.3689 144.139 61.9763C148.832 45.1472 139.148 27.9317 123.018 23.441Z" fill="white"/>
<path d="M123.018 23.441L77.3361 10.723C62.7824 6.67121 48.1236 12.5097 39.7401 30.5028C31.3566 48.4959 17.1597 78.6619 17.1597 78.6619C16.9716 79.3374 16.5614 79.9511 16.3753 80.6195C14.4986 87.3605 18.3743 94.2396 24.8665 96.047C28.2272 96.9827 31.5127 96.4415 34.3178 95.0465L71.11 73.8272L106.265 83.6146C122.388 88.1033 139.575 78.3689 144.139 61.9763C148.832 45.1472 139.148 27.9317 123.018 23.441Z" fill="url(#paint1_linear)" fill-opacity="0.1"/>
</g>
<path d="M83.3629 41.679L73.0584 38.8102L75.9355 28.476L68.5475 26.4191L65.6704 36.7533L55.3659 33.8845L53.3031 41.2938L63.6076 44.1626L60.7305 54.4968L68.1185 56.5536L70.9956 46.2194L81.3001 49.0883L83.3629 41.679V41.679Z" fill="#05CD88"/>
<g filter="url(#filter2_dddii)">
<path d="M118.079 48.451C120.675 49.1739 123.367 47.6491 124.092 45.0453C124.817 42.4416 123.3 39.7448 120.704 39.022C118.107 38.2991 115.415 39.8239 114.69 42.4277C113.965 45.0314 115.482 47.7282 118.079 48.451Z" fill="#1B98CD"/>
</g>
<g filter="url(#filter3_dddii)">
<path d="M112.391 68.8815C114.987 69.6044 117.679 68.0798 118.404 65.4764C119.129 62.8729 117.612 60.1765 115.015 59.4536C112.419 58.7308 109.727 60.2553 109.002 62.8587C108.277 65.4622 109.794 68.1587 112.391 68.8815Z" fill="#1B98CD"/>
</g>
<g filter="url(#filter4_dddii)">
<path d="M125.566 61.6629C128.163 62.3859 130.855 60.8613 131.58 58.2576C132.305 55.6539 130.788 52.9572 128.191 52.2342C125.594 51.5112 122.901 53.0359 122.176 55.6395C121.451 58.2432 122.969 60.9399 125.566 61.6629Z" fill="#1B98CD"/>
</g>
<g filter="url(#filter5_dddii)">
<path d="M105.041 55.9487C107.638 56.6717 110.331 55.147 111.056 52.5434C111.781 49.9397 110.263 47.243 107.666 46.52C105.069 45.797 102.377 47.3216 101.652 49.9253C100.927 52.5289 102.444 55.2257 105.041 55.9487Z" fill="#1B98CD"/>
</g>
<g filter="url(#filter6_dddii)">
<ellipse cx="67.3873" cy="42" rx="16.5" ry="17" fill="#3F3F3F"/>
<ellipse cx="67.3873" cy="42" rx="16.5" ry="17" fill="url(#paint2_linear)" fill-opacity="0.1"/>
</g>
<g filter="url(#filter7_dddii)">
<path d="M387.234 108.8H356C355.448 108.8 355 109.248 355 109.8V117.072C355 117.541 355.171 117.947 355.512 118.288C355.853 118.629 356.259 118.8 356.728 118.8H386.36C386.829 118.8 387.235 118.629 387.576 118.288C387.917 117.947 388.088 117.541 388.088 117.072V110.288C388.088 109.819 387.917 109.413 387.576 109.072C387.468 108.964 387.354 108.874 387.234 108.8Z" fill="white"/>
<path d="M355 97.8C355 98.3523 355.448 98.8 356 98.8H365.84C366.392 98.8 366.84 98.3523 366.84 97.8V75.728C366.84 75.2587 366.669 74.8533 366.328 74.512C365.987 74.1707 365.581 74 365.112 74H356.728C356.259 74 355.853 74.1707 355.512 74.512C355.171 74.8533 355 75.2587 355 75.728V97.8Z" fill="white"/>
<path d="M408.603 108.8H420.443V117.072C420.443 117.541 420.272 117.947 419.931 118.288C419.589 118.629 419.184 118.8 418.715 118.8H410.331C409.861 118.8 409.456 118.629 409.114 118.288C408.773 117.947 408.603 117.541 408.603 117.072V108.8Z" fill="white"/>
<path d="M420.443 108.8H408.603V75.728C408.603 75.2587 408.773 74.8533 409.114 74.512C409.456 74.1707 409.861 74 410.331 74H418.715C419.184 74 419.589 74.1707 419.931 74.512C420.272 74.8533 420.443 75.2587 420.443 75.728V108.8Z" fill="white"/>
<path d="M475.431 74C475.9 74 476.306 74.1707 476.647 74.512C476.988 74.8533 477.159 75.2587 477.159 75.728V82.512C477.159 82.9813 476.988 83.3867 476.647 83.728C476.306 84.0693 475.9 84.24 475.431 84.24H456.295V93.008H474.151C474.62 93.008 475.026 93.1787 475.367 93.52C475.708 93.8613 475.879 94.2667 475.879 94.736V101.52C475.879 101.989 475.708 102.395 475.367 102.736C475.026 103.077 474.62 103.248 474.151 103.248H456.295V117.072C456.295 117.541 456.124 117.947 455.783 118.288C455.442 118.629 455.036 118.8 454.567 118.8H446.183C445.714 118.8 445.308 118.629 444.967 118.288C444.626 117.947 444.455 117.541 444.455 117.072V75.728C444.455 75.2587 444.626 74.8533 444.967 74.512C445.308 74.1707 445.714 74 446.183 74H475.431Z" fill="white"/>
<path d="M529.139 101.392H510.835V108.56H531.059C531.528 108.56 531.934 108.731 532.275 109.072C532.616 109.413 532.787 109.819 532.787 110.288V117.072C532.787 117.541 532.616 117.947 532.275 118.288C531.934 118.629 531.528 118.8 531.059 118.8H500.723C500.254 118.8 499.848 118.629 499.507 118.288C499.166 117.947 498.995 117.541 498.995 117.072V75.728C498.995 75.2587 499.166 74.8533 499.507 74.512C499.848 74.1707 500.254 74 500.723 74H530.547C531.016 74 531.422 74.1707 531.763 74.512C532.104 74.8533 532.275 75.2587 532.275 75.728V82.512C532.275 82.9813 532.104 83.3867 531.763 83.728C531.422 84.0693 531.016 84.24 530.547 84.24H510.835V91.152H529.139C529.608 91.152 530.014 91.3227 530.355 91.664C530.696 92.0053 530.867 92.4107 530.867 92.88V99.664C530.867 100.133 530.696 100.539 530.355 100.88C530.014 101.221 529.608 101.392 529.139 101.392Z" fill="white"/>
</g>
<g filter="url(#filter8_ddiii)">
<path d="M222.07 74C227.627 74 231.966 75.2857 235.086 77.8571C238.25 80.3857 239.831 84.1143 239.831 89.0429C239.831 93.9714 238.25 97.7214 235.086 100.293C231.966 102.864 227.627 104.15 222.07 104.15H213.862V117.264C213.862 117.736 213.691 118.143 213.349 118.486C213.007 118.829 212.601 119 212.131 119H203.731C203.261 119 202.855 118.829 202.513 118.486C202.171 118.143 202 117.736 202 117.264V75.7357C202 75.2643 202.171 74.8571 202.513 74.5143C202.855 74.1714 203.261 74 203.731 74H222.07ZM221.749 94.1214C223.63 94.1214 225.126 93.7143 226.238 92.9C227.392 92.0429 227.969 90.7571 227.969 89.0429C227.969 87.3286 227.392 86.0643 226.238 85.25C225.126 84.3929 223.63 83.9643 221.749 83.9643H213.862V94.1214H221.749Z" fill="black"/>
<path d="M222.07 74C227.627 74 231.966 75.2857 235.086 77.8571C238.25 80.3857 239.831 84.1143 239.831 89.0429C239.831 93.9714 238.25 97.7214 235.086 100.293C231.966 102.864 227.627 104.15 222.07 104.15H213.862V117.264C213.862 117.736 213.691 118.143 213.349 118.486C213.007 118.829 212.601 119 212.131 119H203.731C203.261 119 202.855 118.829 202.513 118.486C202.171 118.143 202 117.736 202 117.264V75.7357C202 75.2643 202.171 74.8571 202.513 74.5143C202.855 74.1714 203.261 74 203.731 74H222.07ZM221.749 94.1214C223.63 94.1214 225.126 93.7143 226.238 92.9C227.392 92.0429 227.969 90.7571 227.969 89.0429C227.969 87.3286 227.392 86.0643 226.238 85.25C225.126 84.3929 223.63 83.9643 221.749 83.9643H213.862V94.1214H221.749Z" fill="url(#paint3_linear)"/>
<path d="M222.07 74C227.627 74 231.966 75.2857 235.086 77.8571C238.25 80.3857 239.831 84.1143 239.831 89.0429C239.831 93.9714 238.25 97.7214 235.086 100.293C231.966 102.864 227.627 104.15 222.07 104.15H213.862V117.264C213.862 117.736 213.691 118.143 213.349 118.486C213.007 118.829 212.601 119 212.131 119H203.731C203.261 119 202.855 118.829 202.513 118.486C202.171 118.143 202 117.736 202 117.264V75.7357C202 75.2643 202.171 74.8571 202.513 74.5143C202.855 74.1714 203.261 74 203.731 74H222.07ZM221.749 94.1214C223.63 94.1214 225.126 93.7143 226.238 92.9C227.392 92.0429 227.969 90.7571 227.969 89.0429C227.969 87.3286 227.392 86.0643 226.238 85.25C225.126 84.3929 223.63 83.9643 221.749 83.9643H213.862V94.1214H221.749Z" fill="url(#paint4_linear)"/>
<path d="M279.735 117.264C279.735 117.736 279.564 118.143 279.222 118.486C278.88 118.829 278.474 119 278.004 119H269.604C269.134 119 268.728 118.829 268.386 118.486C268.044 118.143 267.873 117.736 267.873 117.264V103.571L253.061 76.25C252.89 75.95 252.805 75.6714 252.805 75.4143C252.805 75.0286 252.933 74.7071 253.189 74.45C253.489 74.15 253.831 74 254.215 74H263C263.727 74 264.304 74.1929 264.731 74.5786C265.201 74.9214 265.522 75.2643 265.693 75.6071L273.772 91.4214L281.915 75.6071C282.086 75.2643 282.386 74.9214 282.813 74.5786C283.283 74.1929 283.882 74 284.609 74H293.393C293.778 74 294.098 74.15 294.355 74.45C294.654 74.7071 294.804 75.0286 294.804 75.4143C294.804 75.6714 294.718 75.95 294.547 76.25L279.735 103.571V117.264Z" fill="black"/>
<path d="M279.735 117.264C279.735 117.736 279.564 118.143 279.222 118.486C278.88 118.829 278.474 119 278.004 119H269.604C269.134 119 268.728 118.829 268.386 118.486C268.044 118.143 267.873 117.736 267.873 117.264V103.571L253.061 76.25C252.89 75.95 252.805 75.6714 252.805 75.4143C252.805 75.0286 252.933 74.7071 253.189 74.45C253.489 74.15 253.831 74 254.215 74H263C263.727 74 264.304 74.1929 264.731 74.5786C265.201 74.9214 265.522 75.2643 265.693 75.6071L273.772 91.4214L281.915 75.6071C282.086 75.2643 282.386 74.9214 282.813 74.5786C283.283 74.1929 283.882 74 284.609 74H293.393C293.778 74 294.098 74.15 294.355 74.45C294.654 74.7071 294.804 75.0286 294.804 75.4143C294.804 75.6714 294.718 75.95 294.547 76.25L279.735 103.571V117.264Z" fill="url(#paint5_linear)"/>
<path d="M279.735 117.264C279.735 117.736 279.564 118.143 279.222 118.486C278.88 118.829 278.474 119 278.004 119H269.604C269.134 119 268.728 118.829 268.386 118.486C268.044 118.143 267.873 117.736 267.873 117.264V103.571L253.061 76.25C252.89 75.95 252.805 75.6714 252.805 75.4143C252.805 75.0286 252.933 74.7071 253.189 74.45C253.489 74.15 253.831 74 254.215 74H263C263.727 74 264.304 74.1929 264.731 74.5786C265.201 74.9214 265.522 75.2643 265.693 75.6071L273.772 91.4214L281.915 75.6071C282.086 75.2643 282.386 74.9214 282.813 74.5786C283.283 74.1929 283.882 74 284.609 74H293.393C293.778 74 294.098 74.15 294.355 74.45C294.654 74.7071 294.804 75.0286 294.804 75.4143C294.804 75.6714 294.718 75.95 294.547 76.25L279.735 103.571V117.264Z" fill="url(#paint6_linear)"/>
<path d="M326 117.264C326 117.736 325.829 118.143 325.487 118.486C325.145 118.829 324.739 119 324.269 119H315.869C315.399 119 314.993 118.829 314.651 118.486C314.309 118.143 314.138 117.736 314.138 117.264V108.843C314.138 108.371 314.309 107.964 314.651 107.621C314.993 107.279 315.399 107.107 315.869 107.107H324.269C324.739 107.107 325.145 107.279 325.487 107.621C325.829 107.964 326 108.371 326 108.843V117.264Z" fill="black"/>
<path d="M326 117.264C326 117.736 325.829 118.143 325.487 118.486C325.145 118.829 324.739 119 324.269 119H315.869C315.399 119 314.993 118.829 314.651 118.486C314.309 118.143 314.138 117.736 314.138 117.264V108.843C314.138 108.371 314.309 107.964 314.651 107.621C314.993 107.279 315.399 107.107 315.869 107.107H324.269C324.739 107.107 325.145 107.279 325.487 107.621C325.829 107.964 326 108.371 326 108.843V117.264Z" fill="url(#paint7_linear)"/>
<path d="M326 117.264C326 117.736 325.829 118.143 325.487 118.486C325.145 118.829 324.739 119 324.269 119H315.869C315.399 119 314.993 118.829 314.651 118.486C314.309 118.143 314.138 117.736 314.138 117.264V108.843C314.138 108.371 314.309 107.964 314.651 107.621C314.993 107.279 315.399 107.107 315.869 107.107H324.269C324.739 107.107 325.145 107.279 325.487 107.621C325.829 107.964 326 108.371 326 108.843V117.264Z" fill="url(#paint8_linear)"/>
</g>
<g filter="url(#filter9_dddii)">
<path d="M209.18 35.112V47.028C209.18 47.292 209.084 47.52 208.892 47.712C208.7 47.904 208.472 48 208.208 48H203.492C203.228 48 203 47.904 202.808 47.712C202.616 47.52 202.52 47.292 202.52 47.028V23.772C202.52 23.508 202.616 23.28 202.808 23.088C203 22.896 203.228 22.8 203.492 22.8H207.668C208.34 22.8 208.856 23.124 209.216 23.772L215.048 33.744L220.88 23.772C221.24 23.124 221.756 22.8 222.428 22.8H226.604C226.868 22.8 227.096 22.896 227.288 23.088C227.48 23.28 227.576 23.508 227.576 23.772V47.028C227.576 47.292 227.48 47.52 227.288 47.712C227.096 47.904 226.868 48 226.604 48H221.888C221.624 48 221.396 47.904 221.204 47.712C221.012 47.52 220.916 47.292 220.916 47.028V35.112L217.532 41.052C217.364 41.316 217.172 41.532 216.956 41.7C216.764 41.868 216.512 41.952 216.2 41.952H213.896C213.584 41.952 213.32 41.868 213.104 41.7C212.912 41.532 212.732 41.316 212.564 41.052L209.18 35.112ZM263.862 46.668C263.958 46.908 264.006 47.088 264.006 47.208C264.006 47.424 263.922 47.616 263.754 47.784C263.61 47.928 263.43 48 263.214 48H258.678C258.27 48 257.946 47.916 257.706 47.748C257.49 47.556 257.346 47.34 257.274 47.1L256.266 44.112H246.69L245.682 47.1C245.61 47.34 245.454 47.556 245.214 47.748C244.998 47.916 244.686 48 244.278 48H239.742C239.526 48 239.334 47.928 239.166 47.784C239.022 47.616 238.95 47.424 238.95 47.208C238.95 47.088 238.998 46.908 239.094 46.668L246.942 23.988C247.062 23.652 247.254 23.376 247.518 23.16C247.782 22.92 248.13 22.8 248.562 22.8H254.394C254.826 22.8 255.174 22.92 255.438 23.16C255.702 23.376 255.894 23.652 256.014 23.988L263.862 46.668ZM254.394 38.532L251.478 29.892L248.562 38.532H254.394ZM284.884 22.8C288.004 22.8 290.44 23.52 292.192 24.96C293.968 26.376 294.856 28.464 294.856 31.224C294.856 33.984 293.968 36.084 292.192 37.524C290.44 38.964 288.004 39.684 284.884 39.684H280.276V47.028C280.276 47.292 280.18 47.52 279.988 47.712C279.796 47.904 279.568 48 279.304 48H274.588C274.324 48 274.096 47.904 273.904 47.712C273.712 47.52 273.616 47.292 273.616 47.028V23.772C273.616 23.508 273.712 23.28 273.904 23.088C274.096 22.896 274.324 22.8 274.588 22.8H284.884ZM284.704 34.068C285.76 34.068 286.6 33.84 287.224 33.384C287.872 32.904 288.196 32.184 288.196 31.224C288.196 30.264 287.872 29.556 287.224 29.1C286.6 28.62 285.76 28.38 284.704 28.38H280.276V34.068H284.704ZM329.543 46.668C329.639 46.908 329.687 47.088 329.687 47.208C329.687 47.424 329.603 47.616 329.435 47.784C329.291 47.928 329.111 48 328.895 48H324.359C323.951 48 323.627 47.916 323.387 47.748C323.171 47.556 323.027 47.34 322.955 47.1L321.947 44.112H312.371L311.363 47.1C311.291 47.34 311.135 47.556 310.895 47.748C310.679 47.916 310.367 48 309.959 48H305.423C305.207 48 305.015 47.928 304.847 47.784C304.703 47.616 304.631 47.424 304.631 47.208C304.631 47.088 304.679 46.908 304.775 46.668L312.623 23.988C312.743 23.652 312.935 23.376 313.199 23.16C313.463 22.92 313.811 22.8 314.243 22.8H320.075C320.507 22.8 320.855 22.92 321.119 23.16C321.383 23.376 321.575 23.652 321.695 23.988L329.543 46.668ZM320.075 38.532L317.159 29.892L314.243 38.532H320.075Z" fill="white"/>
</g>
</g>
<defs>
<filter id="filter0_dddii" x="-1.15155" y="-10.6754" width="186.335" height="164.675" filterUnits="userSpaceOnUse" color-interpolation-filters="sRGB">
<feFlood flood-opacity="0" result="BackgroundImageFix"/>
<feColorMatrix in="SourceAlpha" type="matrix" values="0 0 0 0 0 0 0 0 0 0 0 0 0 0 0 0 0 0 127 0"/>
<feOffset dx="2" dy="2"/>
<feGaussianBlur stdDeviation="4"/>
<feColorMatrix type="matrix" values="0 0 0 0 0 0 0 0 0 0 0 0 0 0 0 0 0 0 0.1 0"/>
<feBlend mode="normal" in2="BackgroundImageFix" result="effect1_dropShadow"/>
<feColorMatrix in="SourceAlpha" type="matrix" values="0 0 0 0 0 0 0 0 0 0 0 0 0 0 0 0 0 0 127 0"/>
<feOffset dx="4" dy="8"/>
<feGaussianBlur stdDeviation="10"/>
<feColorMatrix type="matrix" values="0 0 0 0 0 0 0 0 0 0 0 0 0 0 0 0 0 0 0.1 0"/>
<feBlend mode="normal" in2="effect1_dropShadow" result="effect2_dropShadow"/>
<feColorMatrix in="SourceAlpha" type="matrix" values="0 0 0 0 0 0 0 0 0 0 0 0 0 0 0 0 0 0 127 0"/>
<feOffset dy="2"/>
<feColorMatrix type="matrix" values="0 0 0 0 0 0 0 0 0 0 0 0 0 0 0 0 0 0 0.1 0"/>
<feBlend mode="normal" in2="effect2_dropShadow" result="effect3_dropShadow"/>
<feBlend mode="normal" in="SourceGraphic" in2="effect3_dropShadow" result="shape"/>
<feColorMatrix in="SourceAlpha" type="matrix" values="0 0 0 0 0 0 0 0 0 0 0 0 0 0 0 0 0 0 127 0" result="hardAlpha"/>
<feOffset dy="2"/>
<feComposite in2="hardAlpha" operator="arithmetic" k2="-1" k3="1"/>
<feColorMatrix type="matrix" values="0 0 0 0 1 0 0 0 0 1 0 0 0 0 1 0 0 0 0.25 0"/>
<feBlend mode="normal" in2="shape" result="effect4_innerShadow"/>
<feColorMatrix in="SourceAlpha" type="matrix" values="0 0 0 0 0 0 0 0 0 0 0 0 0 0 0 0 0 0 127 0" result="hardAlpha"/>
<feOffset dy="-2"/>
<feComposite in2="hardAlpha" operator="arithmetic" k2="-1" k3="1"/>
<feColorMatrix type="matrix" values="0 0 0 0 0 0 0 0 0 0 0 0 0 0 0 0 0 0 0.1 0"/>
<feBlend mode="normal" in2="effect4_innerShadow" result="effect5_innerShadow"/>
</filter>
<filter id="filter1_dddii" x="-3" y="-12" width="179.577" height="164.414" filterUnits="userSpaceOnUse" color-interpolation-filters="sRGB">
<feFlood flood-opacity="0" result="BackgroundImageFix"/>
<feColorMatrix in="SourceAlpha" type="matrix" values="0 0 0 0 0 0 0 0 0 0 0 0 0 0 0 0 0 0 127 0"/>
<feOffset dx="2" dy="2"/>
<feGaussianBlur stdDeviation="4"/>
<feColorMatrix type="matrix" values="0 0 0 0 0 0 0 0 0 0 0 0 0 0 0 0 0 0 0.1 0"/>
<feBlend mode="normal" in2="BackgroundImageFix" result="effect1_dropShadow"/>
<feColorMatrix in="SourceAlpha" type="matrix" values="0 0 0 0 0 0 0 0 0 0 0 0 0 0 0 0 0 0 127 0"/>
<feOffset dx="4" dy="8"/>
<feGaussianBlur stdDeviation="10"/>
<feColorMatrix type="matrix" values="0 0 0 0 0 0 0 0 0 0 0 0 0 0 0 0 0 0 0.1 0"/>
<feBlend mode="normal" in2="effect1_dropShadow" result="effect2_dropShadow"/>
<feColorMatrix in="SourceAlpha" type="matrix" values="0 0 0 0 0 0 0 0 0 0 0 0 0 0 0 0 0 0 127 0"/>
<feOffset dy="2"/>
<feColorMatrix type="matrix" values="0 0 0 0 0 0 0 0 0 0 0 0 0 0 0 0 0 0 0.1 0"/>
<feBlend mode="normal" in2="effect2_dropShadow" result="effect3_dropShadow"/>
<feBlend mode="normal" in="SourceGraphic" in2="effect3_dropShadow" result="shape"/>
<feColorMatrix in="SourceAlpha" type="matrix" values="0 0 0 0 0 0 0 0 0 0 0 0 0 0 0 0 0 0 127 0" result="hardAlpha"/>
<feOffset dy="2"/>
<feComposite in2="hardAlpha" operator="arithmetic" k2="-1" k3="1"/>
<feColorMatrix type="matrix" values="0 0 0 0 1 0 0 0 0 1 0 0 0 0 1 0 0 0 0.25 0"/>
<feBlend mode="normal" in2="shape" result="effect4_innerShadow"/>
<feColorMatrix in="SourceAlpha" type="matrix" values="0 0 0 0 0 0 0 0 0 0 0 0 0 0 0 0 0 0 127 0" result="hardAlpha"/>
<feOffset dy="-2"/>
<feComposite in2="hardAlpha" operator="arithmetic" k2="-1" k3="1"/>
<feColorMatrix type="matrix" values="0 0 0 0 0 0 0 0 0 0 0 0 0 0 0 0 0 0 0.1 0"/>
<feBlend mode="normal" in2="effect4_innerShadow" result="effect5_innerShadow"/>
</filter>
<filter id="filter2_dddii" x="98.5089" y="26.8424" width="49.7644" height="49.7882" filterUnits="userSpaceOnUse" color-interpolation-filters="sRGB">
<feFlood flood-opacity="0" result="BackgroundImageFix"/>
<feColorMatrix in="SourceAlpha" type="matrix" values="0 0 0 0 0 0 0 0 0 0 0 0 0 0 0 0 0 0 127 0"/>
<feOffset dx="2" dy="2"/>
<feGaussianBlur stdDeviation="4"/>
<feColorMatrix type="matrix" values="0 0 0 0 0 0 0 0 0 0 0 0 0 0 0 0 0 0 0.1 0"/>
<feBlend mode="normal" in2="BackgroundImageFix" result="effect1_dropShadow"/>
<feColorMatrix in="SourceAlpha" type="matrix" values="0 0 0 0 0 0 0 0 0 0 0 0 0 0 0 0 0 0 127 0"/>
<feOffset dx="4" dy="8"/>
<feGaussianBlur stdDeviation="10"/>
<feColorMatrix type="matrix" values="0 0 0 0 0 0 0 0 0 0 0 0 0 0 0 0 0 0 0.1 0"/>
<feBlend mode="normal" in2="effect1_dropShadow" result="effect2_dropShadow"/>
<feColorMatrix in="SourceAlpha" type="matrix" values="0 0 0 0 0 0 0 0 0 0 0 0 0 0 0 0 0 0 127 0"/>
<feOffset dy="2"/>
<feColorMatrix type="matrix" values="0 0 0 0 0 0 0 0 0 0 0 0 0 0 0 0 0 0 0.1 0"/>
<feBlend mode="normal" in2="effect2_dropShadow" result="effect3_dropShadow"/>
<feBlend mode="normal" in="SourceGraphic" in2="effect3_dropShadow" result="shape"/>
<feColorMatrix in="SourceAlpha" type="matrix" values="0 0 0 0 0 0 0 0 0 0 0 0 0 0 0 0 0 0 127 0" result="hardAlpha"/>
<feOffset dy="2"/>
<feComposite in2="hardAlpha" operator="arithmetic" k2="-1" k3="1"/>
<feColorMatrix type="matrix" values="0 0 0 0 1 0 0 0 0 1 0 0 0 0 1 0 0 0 0.25 0"/>
<feBlend mode="normal" in2="shape" result="effect4_innerShadow"/>
<feColorMatrix in="SourceAlpha" type="matrix" values="0 0 0 0 0 0 0 0 0 0 0 0 0 0 0 0 0 0 127 0" result="hardAlpha"/>
<feOffset dy="-2"/>
<feComposite in2="hardAlpha" operator="arithmetic" k2="-1" k3="1"/>
<feColorMatrix type="matrix" values="0 0 0 0 0 0 0 0 0 0 0 0 0 0 0 0 0 0 0.1 0"/>
<feBlend mode="normal" in2="effect4_innerShadow" result="effect5_innerShadow"/>
</filter>
<filter id="filter3_dddii" x="92.8208" y="47.274" width="49.7643" height="49.787" filterUnits="userSpaceOnUse" color-interpolation-filters="sRGB">
<feFlood flood-opacity="0" result="BackgroundImageFix"/>
<feColorMatrix in="SourceAlpha" type="matrix" values="0 0 0 0 0 0 0 0 0 0 0 0 0 0 0 0 0 0 127 0"/>
<feOffset dx="2" dy="2"/>
<feGaussianBlur stdDeviation="4"/>
<feColorMatrix type="matrix" values="0 0 0 0 0 0 0 0 0 0 0 0 0 0 0 0 0 0 0.1 0"/>
<feBlend mode="normal" in2="BackgroundImageFix" result="effect1_dropShadow"/>
<feColorMatrix in="SourceAlpha" type="matrix" values="0 0 0 0 0 0 0 0 0 0 0 0 0 0 0 0 0 0 127 0"/>
<feOffset dx="4" dy="8"/>
<feGaussianBlur stdDeviation="10"/>
<feColorMatrix type="matrix" values="0 0 0 0 0 0 0 0 0 0 0 0 0 0 0 0 0 0 0.1 0"/>
<feBlend mode="normal" in2="effect1_dropShadow" result="effect2_dropShadow"/>
<feColorMatrix in="SourceAlpha" type="matrix" values="0 0 0 0 0 0 0 0 0 0 0 0 0 0 0 0 0 0 127 0"/>
<feOffset dy="2"/>
<feColorMatrix type="matrix" values="0 0 0 0 0 0 0 0 0 0 0 0 0 0 0 0 0 0 0.1 0"/>
<feBlend mode="normal" in2="effect2_dropShadow" result="effect3_dropShadow"/>
<feBlend mode="normal" in="SourceGraphic" in2="effect3_dropShadow" result="shape"/>
<feColorMatrix in="SourceAlpha" type="matrix" values="0 0 0 0 0 0 0 0 0 0 0 0 0 0 0 0 0 0 127 0" result="hardAlpha"/>
<feOffset dy="2"/>
<feComposite in2="hardAlpha" operator="arithmetic" k2="-1" k3="1"/>
<feColorMatrix type="matrix" values="0 0 0 0 1 0 0 0 0 1 0 0 0 0 1 0 0 0 0.25 0"/>
<feBlend mode="normal" in2="shape" result="effect4_innerShadow"/>
<feColorMatrix in="SourceAlpha" type="matrix" values="0 0 0 0 0 0 0 0 0 0 0 0 0 0 0 0 0 0 127 0" result="hardAlpha"/>
<feOffset dy="-2"/>
<feComposite in2="hardAlpha" operator="arithmetic" k2="-1" k3="1"/>
<feColorMatrix type="matrix" values="0 0 0 0 0 0 0 0 0 0 0 0 0 0 0 0 0 0 0.1 0"/>
<feBlend mode="normal" in2="effect4_innerShadow" result="effect5_innerShadow"/>
</filter>
<filter id="filter4_dddii" x="105.995" y="40.0546" width="49.7659" height="49.7879" filterUnits="userSpaceOnUse" color-interpolation-filters="sRGB">
<feFlood flood-opacity="0" result="BackgroundImageFix"/>
<feColorMatrix in="SourceAlpha" type="matrix" values="0 0 0 0 0 0 0 0 0 0 0 0 0 0 0 0 0 0 127 0"/>
<feOffset dx="2" dy="2"/>
<feGaussianBlur stdDeviation="4"/>
<feColorMatrix type="matrix" values="0 0 0 0 0 0 0 0 0 0 0 0 0 0 0 0 0 0 0.1 0"/>
<feBlend mode="normal" in2="BackgroundImageFix" result="effect1_dropShadow"/>
<feColorMatrix in="SourceAlpha" type="matrix" values="0 0 0 0 0 0 0 0 0 0 0 0 0 0 0 0 0 0 127 0"/>
<feOffset dx="4" dy="8"/>
<feGaussianBlur stdDeviation="10"/>
<feColorMatrix type="matrix" values="0 0 0 0 0 0 0 0 0 0 0 0 0 0 0 0 0 0 0.1 0"/>
<feBlend mode="normal" in2="effect1_dropShadow" result="effect2_dropShadow"/>
<feColorMatrix in="SourceAlpha" type="matrix" values="0 0 0 0 0 0 0 0 0 0 0 0 0 0 0 0 0 0 127 0"/>
<feOffset dy="2"/>
<feColorMatrix type="matrix" values="0 0 0 0 0 0 0 0 0 0 0 0 0 0 0 0 0 0 0.1 0"/>
<feBlend mode="normal" in2="effect2_dropShadow" result="effect3_dropShadow"/>
<feBlend mode="normal" in="SourceGraphic" in2="effect3_dropShadow" result="shape"/>
<feColorMatrix in="SourceAlpha" type="matrix" values="0 0 0 0 0 0 0 0 0 0 0 0 0 0 0 0 0 0 127 0" result="hardAlpha"/>
<feOffset dy="2"/>
<feComposite in2="hardAlpha" operator="arithmetic" k2="-1" k3="1"/>
<feColorMatrix type="matrix" values="0 0 0 0 1 0 0 0 0 1 0 0 0 0 1 0 0 0 0.25 0"/>
<feBlend mode="normal" in2="shape" result="effect4_innerShadow"/>
<feColorMatrix in="SourceAlpha" type="matrix" values="0 0 0 0 0 0 0 0 0 0 0 0 0 0 0 0 0 0 127 0" result="hardAlpha"/>
<feOffset dy="-2"/>
<feComposite in2="hardAlpha" operator="arithmetic" k2="-1" k3="1"/>
<feColorMatrix type="matrix" values="0 0 0 0 0 0 0 0 0 0 0 0 0 0 0 0 0 0 0.1 0"/>
<feBlend mode="normal" in2="effect4_innerShadow" result="effect5_innerShadow"/>
</filter>
<filter id="filter5_dddii" x="85.4707" y="34.3404" width="49.7659" height="49.7879" filterUnits="userSpaceOnUse" color-interpolation-filters="sRGB">
<feFlood flood-opacity="0" result="BackgroundImageFix"/>
<feColorMatrix in="SourceAlpha" type="matrix" values="0 0 0 0 0 0 0 0 0 0 0 0 0 0 0 0 0 0 127 0"/>
<feOffset dx="2" dy="2"/>
<feGaussianBlur stdDeviation="4"/>
<feColorMatrix type="matrix" values="0 0 0 0 0 0 0 0 0 0 0 0 0 0 0 0 0 0 0.1 0"/>
<feBlend mode="normal" in2="BackgroundImageFix" result="effect1_dropShadow"/>
<feColorMatrix in="SourceAlpha" type="matrix" values="0 0 0 0 0 0 0 0 0 0 0 0 0 0 0 0 0 0 127 0"/>
<feOffset dx="4" dy="8"/>
<feGaussianBlur stdDeviation="10"/>
<feColorMatrix type="matrix" values="0 0 0 0 0 0 0 0 0 0 0 0 0 0 0 0 0 0 0.1 0"/>
<feBlend mode="normal" in2="effect1_dropShadow" result="effect2_dropShadow"/>
<feColorMatrix in="SourceAlpha" type="matrix" values="0 0 0 0 0 0 0 0 0 0 0 0 0 0 0 0 0 0 127 0"/>
<feOffset dy="2"/>
<feColorMatrix type="matrix" values="0 0 0 0 0 0 0 0 0 0 0 0 0 0 0 0 0 0 0.1 0"/>
<feBlend mode="normal" in2="effect2_dropShadow" result="effect3_dropShadow"/>
<feBlend mode="normal" in="SourceGraphic" in2="effect3_dropShadow" result="shape"/>
<feColorMatrix in="SourceAlpha" type="matrix" values="0 0 0 0 0 0 0 0 0 0 0 0 0 0 0 0 0 0 127 0" result="hardAlpha"/>
<feOffset dy="2"/>
<feComposite in2="hardAlpha" operator="arithmetic" k2="-1" k3="1"/>
<feColorMatrix type="matrix" values="0 0 0 0 1 0 0 0 0 1 0 0 0 0 1 0 0 0 0.25 0"/>
<feBlend mode="normal" in2="shape" result="effect4_innerShadow"/>
<feColorMatrix in="SourceAlpha" type="matrix" values="0 0 0 0 0 0 0 0 0 0 0 0 0 0 0 0 0 0 127 0" result="hardAlpha"/>
<feOffset dy="-2"/>
<feComposite in2="hardAlpha" operator="arithmetic" k2="-1" k3="1"/>
<feColorMatrix type="matrix" values="0 0 0 0 0 0 0 0 0 0 0 0 0 0 0 0 0 0 0.1 0"/>
<feBlend mode="normal" in2="effect4_innerShadow" result="effect5_innerShadow"/>
</filter>
<filter id="filter6_dddii" x="34.8873" y="13" width="73" height="74" filterUnits="userSpaceOnUse" color-interpolation-filters="sRGB">
<feFlood flood-opacity="0" result="BackgroundImageFix"/>
<feColorMatrix in="SourceAlpha" type="matrix" values="0 0 0 0 0 0 0 0 0 0 0 0 0 0 0 0 0 0 127 0"/>
<feOffset dx="2" dy="2"/>
<feGaussianBlur stdDeviation="4"/>
<feColorMatrix type="matrix" values="0 0 0 0 0 0 0 0 0 0 0 0 0 0 0 0 0 0 0.1 0"/>
<feBlend mode="normal" in2="BackgroundImageFix" result="effect1_dropShadow"/>
<feColorMatrix in="SourceAlpha" type="matrix" values="0 0 0 0 0 0 0 0 0 0 0 0 0 0 0 0 0 0 127 0"/>
<feOffset dx="4" dy="8"/>
<feGaussianBlur stdDeviation="10"/>
<feColorMatrix type="matrix" values="0 0 0 0 0 0 0 0 0 0 0 0 0 0 0 0 0 0 0.1 0"/>
<feBlend mode="normal" in2="effect1_dropShadow" result="effect2_dropShadow"/>
<feColorMatrix in="SourceAlpha" type="matrix" values="0 0 0 0 0 0 0 0 0 0 0 0 0 0 0 0 0 0 127 0"/>
<feOffset dy="2"/>
<feColorMatrix type="matrix" values="0 0 0 0 0 0 0 0 0 0 0 0 0 0 0 0 0 0 0.1 0"/>
<feBlend mode="normal" in2="effect2_dropShadow" result="effect3_dropShadow"/>
<feBlend mode="normal" in="SourceGraphic" in2="effect3_dropShadow" result="shape"/>
<feColorMatrix in="SourceAlpha" type="matrix" values="0 0 0 0 0 0 0 0 0 0 0 0 0 0 0 0 0 0 127 0" result="hardAlpha"/>
<feOffset dy="2"/>
<feComposite in2="hardAlpha" operator="arithmetic" k2="-1" k3="1"/>
<feColorMatrix type="matrix" values="0 0 0 0 1 0 0 0 0 1 0 0 0 0 1 0 0 0 0.25 0"/>
<feBlend mode="normal" in2="shape" result="effect4_innerShadow"/>
<feColorMatrix in="SourceAlpha" type="matrix" values="0 0 0 0 0 0 0 0 0 0 0 0 0 0 0 0 0 0 127 0" result="hardAlpha"/>
<feOffset dy="-2"/>
<feComposite in2="hardAlpha" operator="arithmetic" k2="-1" k3="1"/>
<feColorMatrix type="matrix" values="0 0 0 0 0 0 0 0 0 0 0 0 0 0 0 0 0 0 0.1 0"/>
<feBlend mode="normal" in2="effect4_innerShadow" result="effect5_innerShadow"/>
</filter>
<filter id="filter7_dddii" x="339" y="62" width="217.787" height="84.8" filterUnits="userSpaceOnUse" color-interpolation-filters="sRGB">
<feFlood flood-opacity="0" result="BackgroundImageFix"/>
<feColorMatrix in="SourceAlpha" type="matrix" values="0 0 0 0 0 0 0 0 0 0 0 0 0 0 0 0 0 0 127 0"/>
<feOffset dx="2" dy="2"/>
<feGaussianBlur stdDeviation="4"/>
<feColorMatrix type="matrix" values="0 0 0 0 0 0 0 0 0 0 0 0 0 0 0 0 0 0 0.1 0"/>
<feBlend mode="normal" in2="BackgroundImageFix" result="effect1_dropShadow"/>
<feColorMatrix in="SourceAlpha" type="matrix" values="0 0 0 0 0 0 0 0 0 0 0 0 0 0 0 0 0 0 127 0"/>
<feOffset dx="4" dy="8"/>
<feGaussianBlur stdDeviation="10"/>
<feColorMatrix type="matrix" values="0 0 0 0 0 0 0 0 0 0 0 0 0 0 0 0 0 0 0.1 0"/>
<feBlend mode="normal" in2="effect1_dropShadow" result="effect2_dropShadow"/>
<feColorMatrix in="SourceAlpha" type="matrix" values="0 0 0 0 0 0 0 0 0 0 0 0 0 0 0 0 0 0 127 0"/>
<feOffset dy="2"/>
<feColorMatrix type="matrix" values="0 0 0 0 0 0 0 0 0 0 0 0 0 0 0 0 0 0 0.1 0"/>
<feBlend mode="normal" in2="effect2_dropShadow" result="effect3_dropShadow"/>
<feBlend mode="normal" in="SourceGraphic" in2="effect3_dropShadow" result="shape"/>
<feColorMatrix in="SourceAlpha" type="matrix" values="0 0 0 0 0 0 0 0 0 0 0 0 0 0 0 0 0 0 127 0" result="hardAlpha"/>
<feOffset dy="2"/>
<feComposite in2="hardAlpha" operator="arithmetic" k2="-1" k3="1"/>
<feColorMatrix type="matrix" values="0 0 0 0 1 0 0 0 0 1 0 0 0 0 1 0 0 0 0.25 0"/>
<feBlend mode="normal" in2="shape" result="effect4_innerShadow"/>
<feColorMatrix in="SourceAlpha" type="matrix" values="0 0 0 0 0 0 0 0 0 0 0 0 0 0 0 0 0 0 127 0" result="hardAlpha"/>
<feOffset dy="-2"/>
<feComposite in2="hardAlpha" operator="arithmetic" k2="-1" k3="1"/>
<feColorMatrix type="matrix" values="0 0 0 0 0 0 0 0 0 0 0 0 0 0 0 0 0 0 0.1 0"/>
<feBlend mode="normal" in2="effect4_innerShadow" result="effect5_innerShadow"/>
</filter>
<filter id="filter8_ddiii" x="202" y="72" width="128" height="55" filterUnits="userSpaceOnUse" color-interpolation-filters="sRGB">
<feFlood flood-opacity="0" result="BackgroundImageFix"/>
<feColorMatrix in="SourceAlpha" type="matrix" values="0 0 0 0 0 0 0 0 0 0 0 0 0 0 0 0 0 0 127 0"/>
<feOffset dy="2"/>
<feColorMatrix type="matrix" values="0 0 0 0 1 0 0 0 0 1 0 0 0 0 1 0 0 0 0.25 0"/>
<feBlend mode="normal" in2="BackgroundImageFix" result="effect1_dropShadow"/>
<feColorMatrix in="SourceAlpha" type="matrix" values="0 0 0 0 0 0 0 0 0 0 0 0 0 0 0 0 0 0 127 0"/>
<feOffset dy="-2"/>
<feColorMatrix type="matrix" values="0 0 0 0 0 0 0 0 0 0 0 0 0 0 0 0 0 0 0.1 0"/>
<feBlend mode="normal" in2="effect1_dropShadow" result="effect2_dropShadow"/>
<feBlend mode="normal" in="SourceGraphic" in2="effect2_dropShadow" result="shape"/>
<feColorMatrix in="SourceAlpha" type="matrix" values="0 0 0 0 0 0 0 0 0 0 0 0 0 0 0 0 0 0 127 0" result="hardAlpha"/>
<feOffset dx="2" dy="2"/>
<feGaussianBlur stdDeviation="4"/>
<feComposite in2="hardAlpha" operator="arithmetic" k2="-1" k3="1"/>
<feColorMatrix type="matrix" values="0 0 0 0 0 0 0 0 0 0 0 0 0 0 0 0 0 0 0.1 0"/>
<feBlend mode="normal" in2="shape" result="effect3_innerShadow"/>
<feColorMatrix in="SourceAlpha" type="matrix" values="0 0 0 0 0 0 0 0 0 0 0 0 0 0 0 0 0 0 127 0" result="hardAlpha"/>
<feOffset dx="4" dy="8"/>
<feGaussianBlur stdDeviation="10"/>
<feComposite in2="hardAlpha" operator="arithmetic" k2="-1" k3="1"/>
<feColorMatrix type="matrix" values="0 0 0 0 0 0 0 0 0 0 0 0 0 0 0 0 0 0 0.1 0"/>
<feBlend mode="normal" in2="effect3_innerShadow" result="effect4_innerShadow"/>
<feColorMatrix in="SourceAlpha" type="matrix" values="0 0 0 0 0 0 0 0 0 0 0 0 0 0 0 0 0 0 127 0" result="hardAlpha"/>
<feOffset dy="2"/>
<feComposite in2="hardAlpha" operator="arithmetic" k2="-1" k3="1"/>
<feColorMatrix type="matrix" values="0 0 0 0 0 0 0 0 0 0 0 0 0 0 0 0 0 0 0.1 0"/>
<feBlend mode="normal" in2="effect4_innerShadow" result="effect5_innerShadow"/>
</filter>
<filter id="filter9_dddii" x="186.52" y="10.8" width="167.167" height="65.2" filterUnits="userSpaceOnUse" color-interpolation-filters="sRGB">
<feFlood flood-opacity="0" result="BackgroundImageFix"/>
<feColorMatrix in="SourceAlpha" type="matrix" values="0 0 0 0 0 0 0 0 0 0 0 0 0 0 0 0 0 0 127 0"/>
<feOffset dx="2" dy="2"/>
<feGaussianBlur stdDeviation="4"/>
<feColorMatrix type="matrix" values="0 0 0 0 0 0 0 0 0 0 0 0 0 0 0 0 0 0 0.1 0"/>
<feBlend mode="normal" in2="BackgroundImageFix" result="effect1_dropShadow"/>
<feColorMatrix in="SourceAlpha" type="matrix" values="0 0 0 0 0 0 0 0 0 0 0 0 0 0 0 0 0 0 127 0"/>
<feOffset dx="4" dy="8"/>
<feGaussianBlur stdDeviation="10"/>
<feColorMatrix type="matrix" values="0 0 0 0 0 0 0 0 0 0 0 0 0 0 0 0 0 0 0.1 0"/>
<feBlend mode="normal" in2="effect1_dropShadow" result="effect2_dropShadow"/>
<feColorMatrix in="SourceAlpha" type="matrix" values="0 0 0 0 0 0 0 0 0 0 0 0 0 0 0 0 0 0 127 0"/>
<feOffset dy="2"/>
<feColorMatrix type="matrix" values="0 0 0 0 0 0 0 0 0 0 0 0 0 0 0 0 0 0 0.1 0"/>
<feBlend mode="normal" in2="effect2_dropShadow" result="effect3_dropShadow"/>
<feBlend mode="normal" in="SourceGraphic" in2="effect3_dropShadow" result="shape"/>
<feColorMatrix in="SourceAlpha" type="matrix" values="0 0 0 0 0 0 0 0 0 0 0 0 0 0 0 0 0 0 127 0" result="hardAlpha"/>
<feOffset dy="2"/>
<feComposite in2="hardAlpha" operator="arithmetic" k2="-1" k3="1"/>
<feColorMatrix type="matrix" values="0 0 0 0 1 0 0 0 0 1 0 0 0 0 1 0 0 0 0.25 0"/>
<feBlend mode="normal" in2="shape" result="effect4_innerShadow"/>
<feColorMatrix in="SourceAlpha" type="matrix" values="0 0 0 0 0 0 0 0 0 0 0 0 0 0 0 0 0 0 127 0" result="hardAlpha"/>
<feOffset dy="-2"/>
<feComposite in2="hardAlpha" operator="arithmetic" k2="-1" k3="1"/>
<feColorMatrix type="matrix" values="0 0 0 0 0 0 0 0 0 0 0 0 0 0 0 0 0 0 0.1 0"/>
<feBlend mode="normal" in2="effect4_innerShadow" result="effect5_innerShadow"/>
</filter>
<linearGradient id="paint0_linear" x1="137.741" y1="32.9957" x2="96.5002" y2="102.19" gradientUnits="userSpaceOnUse">
<stop stop-color="#036AC9"/>
<stop offset="1" stop-color="#1B96CB"/>
</linearGradient>
<linearGradient id="paint1_linear" x1="95.6984" y1="15.8351" x2="69.8782" y2="108.578" gradientUnits="userSpaceOnUse">
<stop stop-color="white"/>
<stop offset="1" stop-color="white" stop-opacity="0"/>
</linearGradient>
<linearGradient id="paint2_linear" x1="67.3873" y1="25" x2="67.3873" y2="59" gradientUnits="userSpaceOnUse">
<stop stop-color="white"/>
<stop offset="1" stop-color="white" stop-opacity="0"/>
</linearGradient>
<linearGradient id="paint3_linear" x1="303.171" y1="76.0699" x2="298.03" y2="115.172" gradientUnits="userSpaceOnUse">
<stop stop-color="#036AC9"/>
<stop offset="1" stop-color="#5785AF"/>
</linearGradient>
<linearGradient id="paint4_linear" x1="303.171" y1="76.0699" x2="298.03" y2="115.172" gradientUnits="userSpaceOnUse">
<stop stop-color="#036AC9"/>
<stop offset="1" stop-color="#1B96CB"/>
</linearGradient>
<linearGradient id="paint5_linear" x1="303.171" y1="76.0699" x2="298.03" y2="115.172" gradientUnits="userSpaceOnUse">
<stop stop-color="#036AC9"/>
<stop offset="1" stop-color="#5785AF"/>
</linearGradient>
<linearGradient id="paint6_linear" x1="303.171" y1="76.0699" x2="298.03" y2="115.172" gradientUnits="userSpaceOnUse">
<stop stop-color="#036AC9"/>
<stop offset="1" stop-color="#1B96CB"/>
</linearGradient>
<linearGradient id="paint7_linear" x1="303.171" y1="76.0699" x2="298.03" y2="115.172" gradientUnits="userSpaceOnUse">
<stop stop-color="#036AC9"/>
<stop offset="1" stop-color="#5785AF"/>
</linearGradient>
<linearGradient id="paint8_linear" x1="303.171" y1="76.0699" x2="298.03" y2="115.172" gradientUnits="userSpaceOnUse">
<stop stop-color="#036AC9"/>
<stop offset="1" stop-color="#1B96CB"/>
</linearGradient>
<clipPath id="clip0">
<rect width="564" height="138" fill="white"/>
</clipPath>
</defs>
</svg>
